PathFileType	4	(X/Y/Z)	c:/Users/goper/Files/vsCode/490R/osim_files/C11/C11_Static_03.trc
DataRate	CameraRate	NumFrames	NumMarkers	Units                	OrigDataRate	OrigDataStartFrame	OrigNumFrames
120.00	120.00	9	36	mm	120.0	470	536
                Frame#	Time	LPSIS			LASIS			LTH1			LTH2			LTH3			LTH4			LLFE			LMFE			LSH1			LSH2			LSH3			LSH4			LLMAL			LMMAL			LCAL			LMTP5			LTOE			LMTP1			RPSIS			RASIS			RTH1			RTH2			RTH3			RTH4			RLFE			RMFE			RSH1			RSH2			RSH3			RSH4			RLMAL			RMMAL			RCAL			RMTP1			RTOE			RMTP5		
		X1	Y1	Z1	X2	Y2	Z2	X3	Y3	Z3	X4	Y4	Z4	X5	Y5	Z5	X6	Y6	Z6	X7	Y7	Z7	X8	Y8	Z8	X9	Y9	Z9	X10	Y10	Z10	X11	Y11	Z11	X12	Y12	Z12	X13	Y13	Z13	X14	Y14	Z14	X15	Y15	Z15	X16	Y16	Z16	X17	Y17	Z17	X18	Y18	Z18	X19	Y19	Z19	X20	Y20	Z20	X21	Y21	Z21	X22	Y22	Z22	X23	Y23	Z23	X24	Y24	Z24	X25	Y25	Z25	X26	Y26	Z26	X27	Y27	Z27	X28	Y28	Z28	X29	Y29	Z29	X30	Y30	Z30	X31	Y31	Z31	X32	Y32	Z32	X33	Y33	Z33	X34	Y34	Z34	X35	Y35	Z35	X36	Y36	Z36

470	3.90833	-374.95618	1015.29022	444.12772	-197.28882	1009.09766	375.59094	-326.55219	636.87726	298.02670	-325.47717	589.29962	293.23810	-267.27106	633.75195	283.83109	-274.08521	587.63684	284.23639	-306.58237	515.56702	279.96735	-288.45630	501.86102	388.16623	-365.80884	413.32803	267.53311	-365.94690	368.50522	263.13959	-304.87274	408.82837	255.19518	-313.59662	364.55615	253.31596	-343.01559	96.48277	290.34171	-306.08038	110.53234	381.23196	-397.04486	59.35118	349.06613	-234.55585	40.12498	247.55833	-156.83279	57.83556	309.77023	-192.58612	45.49103	359.43835	-371.96692	1028.20154	527.93506	-209.83118	998.69812	609.74091	-303.54507	651.00977	673.65991	-300.81137	607.01276	672.67139	-241.10460	647.17419	665.97662	-248.54166	604.69086	666.84186	-282.34561	517.63354	662.79364	-306.33612	489.79913	552.09888	-354.37598	414.15250	687.64697	-350.87701	368.06537	690.17963	-292.38757	410.82602	683.64551	-297.97482	364.11337	689.16223	-339.37735	98.15157	666.93298	-311.25177	105.47979	571.96069	-400.17120	59.74717	615.17700	-184.27905	49.42952	597.54846	-181.26170	62.36142	647.73932	-222.94482	39.21026	708.11646
471	3.91667	-374.75327	1015.21112	444.21048	-197.03549	1009.01733	375.66769	-326.48389	636.87256	298.08765	-325.42578	589.29852	293.28342	-267.18402	633.72516	283.93210	-274.06311	587.59839	284.31766	-306.62741	515.52271	280.02209	-288.52966	501.78827	388.19876	-365.83542	413.29263	267.56909	-365.97360	368.47061	263.14841	-304.86530	408.85092	255.22585	-313.62711	364.54440	253.35027	-343.01736	96.44244	290.35788	-306.14474	110.47287	381.25272	-397.10098	59.32033	349.10208	-234.65759	39.95571	247.66791	-156.87099	57.76633	309.79330	-192.60858	45.43615	359.46341	-370.61374	1027.71155	528.05420	-209.62532	998.64966	609.85809	-303.66699	650.99847	673.83008	-300.89835	606.96136	672.81818	-241.21344	647.10748	666.15643	-248.66595	604.63525	666.99402	-282.53125	517.62006	662.92188	-306.55774	489.77914	552.22186	-354.59619	414.09247	687.77582	-351.12372	367.96713	690.30225	-292.64209	410.76755	683.77307	-298.20959	364.06851	689.28711	-339.37662	98.04516	666.98438	-311.27066	105.44199	571.99554	-400.21436	59.68571	615.26160	-184.26317	49.42968	597.56885	-181.28311	62.32675	647.77118	-223.00299	39.13166	708.16803
472	3.92500	-374.54431	1015.16895	444.29855	-196.77106	1008.99420	375.74503	-326.57388	636.84235	298.21713	-325.39798	589.34796	293.35684	-267.10498	633.72797	284.02148	-274.02979	587.59125	284.37280	-306.66843	515.53931	280.07855	-288.54068	501.81046	388.24380	-365.90109	413.27109	267.57483	-366.00217	368.48221	263.14694	-304.90176	408.89557	255.22360	-313.65790	364.59286	253.37492	-343.00510	96.45979	290.35892	-306.12201	110.49012	381.25140	-397.09842	59.33268	349.09055	-234.55902	40.07236	247.60028	-156.83440	57.79589	309.78259	-192.59442	45.44562	359.44986	-370.39764	1027.70569	528.10541	-209.34280	998.68188	609.98859	-303.74133	651.02930	673.97168	-301.03058	606.98621	672.93787	-241.27094	647.08740	666.29700	-248.78607	604.64984	667.11334	-282.70667	517.65338	663.02631	-306.76614	489.80957	552.32703	-354.83197	414.08215	687.88580	-351.30377	367.92001	690.37793	-292.81427	410.79083	683.88495	-298.41989	364.07535	689.39825	-339.38550	98.05350	667.00317	-311.29706	105.45392	572.02716	-400.20523	59.66407	615.24774	-184.27579	49.45761	597.57593	-181.27451	62.34641	647.76764	-222.99188	39.12207	708.17224
473	3.93333	-374.18997	1015.09235	444.39462	-196.50964	1008.99292	375.84995	-326.38330	636.93170	298.21329	-325.35892	589.38684	293.40671	-267.04449	633.74274	284.10233	-273.99539	587.62445	284.43851	-306.67682	515.59259	280.12454	-288.58514	501.86224	388.25494	-365.89029	413.28262	267.56989	-366.06226	368.53525	263.16077	-304.91351	408.96661	255.24429	-313.68381	364.63989	253.38055	-343.00909	96.49535	290.35977	-306.12320	110.52203	381.22177	-397.08768	59.38170	349.06445	-234.57054	40.11253	247.56926	-156.81462	57.84243	309.77484	-192.57227	45.49886	359.45709	-370.11835	1027.64929	528.16223	-209.07985	998.73669	610.10742	-303.82257	651.08710	674.07208	-301.19165	607.03662	673.02258	-241.33830	647.12683	666.42426	-248.87769	604.68463	667.23657	-282.93042	517.71362	663.12903	-307.02765	489.83932	552.42255	-355.09302	414.08688	687.97723	-351.50211	367.91772	690.44012	-292.96030	410.88559	683.95605	-298.60730	364.13940	689.48370	-339.40784	98.07962	666.97003	-311.29694	105.48371	572.04559	-400.20367	59.70753	615.24127	-184.25929	49.48840	597.59192	-181.26503	62.38990	647.78662	-222.98477	39.16453	708.16864
474	3.94167	-373.93442	1015.02863	444.48462	-196.21724	1008.97852	375.98386	-326.32544	636.96759	298.28409	-325.32831	589.41974	293.46384	-266.96094	633.75977	284.17343	-273.94427	587.66278	284.49173	-306.68225	515.64563	280.16467	-287.93240	502.23840	388.29504	-365.91934	413.34247	267.57919	-366.08646	368.57068	263.17368	-304.93427	408.98959	255.29512	-313.73309	364.68250	253.40915	-343.02051	96.51497	290.35464	-306.11963	110.54932	381.21634	-397.12152	59.45073	349.04880	-234.57826	40.14866	247.57167	-156.83797	57.84945	309.77744	-192.58130	45.54541	359.44498	-369.95016	1027.61877	528.22546	-208.89313	998.76270	610.23859	-303.93539	651.14331	674.20795	-301.35730	607.10309	673.11755	-241.43311	647.10907	666.52802	-249.02963	604.68134	667.34503	-283.18994	517.74030	663.22327	-307.35181	489.95288	552.39691	-355.36127	414.07635	688.07446	-351.61032	367.91125	690.43689	-293.18954	410.96265	684.06812	-298.82864	364.18948	689.58911	-339.39853	98.09830	666.93262	-311.28210	105.51846	572.07495	-400.21338	59.76451	615.17896	-184.25449	49.37474	597.70734	-181.27148	62.42215	647.79175	-222.96019	39.20862	708.16571
475	3.95000	-373.65259	1014.98126	444.57468	-195.98053	1008.95630	376.09335	-326.00696	636.94739	298.46744	-325.28113	589.45929	293.51865	-266.89618	633.76501	284.25876	-273.87851	587.68433	284.56009	-306.70599	515.69196	280.21582	-287.99689	502.19580	388.35135	-365.38647	413.44443	267.35440	-366.09265	368.59143	263.20477	-305.00662	409.01404	255.31860	-313.75412	364.72818	253.44096	-343.02707	96.53819	290.34128	-306.10977	110.58202	381.19080	-397.14764	59.50321	349.03525	-234.57796	40.16754	247.54245	-156.83423	57.85666	309.76450	-192.54041	45.58569	359.42551	-369.80225	1027.61133	528.27460	-208.71269	998.76660	610.34698	-304.01648	651.19904	674.34778	-301.51328	607.14941	673.23804	-241.51469	647.09912	666.59869	-249.15096	604.68207	667.42694	-283.43777	517.77271	663.31470	-307.65225	489.91312	552.63257	-355.61420	414.07965	688.16315	-351.54953	367.98373	690.58624	-293.44028	411.02954	684.15277	-299.03595	364.21878	689.65564	-339.35873	98.14485	666.93750	-311.29422	105.54221	572.07465	-400.20706	59.84648	615.14172	-184.24158	49.40602	597.68024	-181.25687	62.44865	647.77454	-222.96048	39.23988	708.14191
476	3.95833	-373.44077	1014.97632	444.64752	-195.75127	1008.93658	376.23978	-326.18338	637.03485	298.38333	-325.21484	589.50470	293.56818	-266.79138	633.77789	284.34796	-273.82065	587.67749	284.63290	-306.69376	515.73853	280.27631	-287.96356	502.21964	388.45465	-365.93161	413.41299	267.63068	-366.11200	368.63107	263.21127	-304.97369	409.05292	255.39143	-313.76526	364.77872	253.49312	-343.00638	96.54118	290.33466	-306.10229	110.57929	381.20987	-397.13007	59.49463	349.05746	-234.57011	40.17456	247.53845	-156.84550	57.83222	309.76401	-192.56683	45.52902	359.41879	-369.63657	1027.62683	528.35858	-208.53435	998.73505	610.49445	-304.09744	651.26471	674.48682	-301.68411	607.18341	673.39008	-241.66934	647.02234	666.70831	-249.31586	604.63422	667.53131	-283.71143	517.75250	663.42834	-307.94916	489.96042	552.74384	-355.87518	414.06497	688.27502	-352.05731	367.92810	690.61230	-293.79947	410.97366	684.30725	-299.25415	364.22708	689.74036	-339.34088	98.12618	666.97308	-311.28210	105.56696	572.09644	-400.20544	59.85457	615.16022	-184.30177	49.37824	597.69684	-181.27153	62.41771	647.79590	-222.96233	39.22231	708.16010
477	3.96667	-373.26538	1015.04950	444.69952	-195.49892	1008.92230	376.41299	-326.04996	637.08435	298.40714	-325.13773	589.59369	293.59619	-266.67426	633.80981	284.43738	-273.74255	587.69702	284.72070	-306.61871	515.79199	280.32730	-288.64301	501.88318	388.55939	-365.38687	413.53506	267.42664	-366.09451	368.71255	263.24524	-305.01367	409.07712	255.39671	-313.73431	364.84793	253.53868	-342.96658	96.58366	290.32449	-306.07690	110.59955	381.22018	-397.12326	59.51394	349.06677	-234.56107	40.15758	247.54398	-156.86490	57.80447	309.79034	-192.60608	45.49178	359.45209	-369.45142	1027.69312	528.47772	-208.40944	998.68066	610.67322	-304.16211	651.30884	674.65796	-301.86340	607.24042	673.54834	-241.78192	646.97968	666.82501	-249.52243	604.58295	667.65674	-284.08099	517.71106	663.56262	-308.21750	490.04111	552.88055	-356.15515	414.06287	688.39496	-352.34100	367.94577	690.76801	-294.13510	410.94418	684.45679	-299.53775	364.20401	689.87567	-339.36942	98.15323	667.02856	-311.26385	105.60246	572.11871	-400.17715	59.82851	615.17657	-184.33195	49.51205	597.61969	-181.29507	62.37069	647.82562	-222.94061	39.21821	708.17407
478	3.97500	-373.06573	1015.11218	444.77695	-195.18832	1008.93512	376.59082	-325.90045	637.11823	298.45294	-325.02496	589.62579	293.65558	-266.55121	633.82483	284.52686	-273.63095	587.68756	284.82275	-306.56873	515.82587	280.39746	-288.64752	501.85062	388.67206	-365.36725	413.59763	267.44745	-366.08163	368.79059	263.27429	-304.95236	409.11777	255.47548	-313.70157	364.91269	253.60007	-342.91541	96.60800	290.33127	-306.00308	110.62512	381.23334	-397.03326	59.51556	349.06982	-234.52361	40.16396	247.57114	-156.82538	57.78124	309.80597	-192.57127	45.45803	359.47079	-370.24896	1028.13367	528.61444	-208.18927	998.63397	610.86639	-304.24966	651.35089	674.81793	-301.98315	607.29260	673.71936	-241.86037	646.95007	666.94867	-249.66168	604.56885	667.79803	-284.34586	517.69989	663.68536	-308.45059	490.09924	552.97491	-356.37943	414.04614	688.51740	-352.57953	367.96661	690.92090	-294.39697	410.90479	684.58051	-299.78864	364.19272	690.01239	-339.32388	98.16419	667.07208	-311.25128	105.62489	572.13983	-400.11356	59.80192	615.17242	-184.31105	49.51196	597.63849	-181.28067	62.35183	647.84772	-222.91577	39.20584	708.19208
